<?xml version="1.0" encoding="UTF-8" standalone="no"?>
<!-- Created with Inkscape (http://www.inkscape.org/) -->

<svg
   xmlns:dc="http://purl.org/dc/elements/1.1/"
   xmlns:cc="http://creativecommons.org/ns#"
   xmlns:rdf="http://www.w3.org/1999/02/22-rdf-syntax-ns#"
   xmlns:svg="http://www.w3.org/2000/svg"
   xmlns="http://www.w3.org/2000/svg"
   xmlns:sodipodi="http://sodipodi.sourceforge.net/DTD/sodipodi-0.dtd"
   xmlns:inkscape="http://www.inkscape.org/namespaces/inkscape"
   width="128mm"
   height="128mm"
   viewBox="0 0 453.54331 453.54331"
   id="svg2"
   version="1.1"
   inkscape:version="0.91 r13725"
   sodipodi:docname="logo.svg"
   inkscape:export-filename="C:\Users\benzap\projects\utimer\resources\public\media\logo.png"
   inkscape:export-xdpi="90"
   inkscape:export-ydpi="90">
  <defs
     id="defs4" />
  <sodipodi:namedview
     id="base"
     pagecolor="#ffffff"
     bordercolor="#666666"
     borderopacity="1.0"
     inkscape:pageopacity="0.0"
     inkscape:pageshadow="2"
     inkscape:zoom="0.98994949"
     inkscape:cx="125.08239"
     inkscape:cy="324.55968"
     inkscape:document-units="px"
     inkscape:current-layer="layer1"
     showgrid="false"
     inkscape:window-width="1680"
     inkscape:window-height="997"
     inkscape:window-x="1016"
     inkscape:window-y="-8"
     inkscape:window-maximized="1" />
  <metadata
     id="metadata7">
    <rdf:RDF>
      <cc:Work
         rdf:about="">
        <dc:format>image/svg+xml</dc:format>
        <dc:type
           rdf:resource="http://purl.org/dc/dcmitype/StillImage" />
        <dc:title></dc:title>
      </cc:Work>
    </rdf:RDF>
  </metadata>
  <g
     inkscape:label="Layer 1"
     inkscape:groupmode="layer"
     id="layer1"
     transform="translate(0,-598.8189)">
    <rect
       style="fill:#e4c87d;fill-opacity:1;stroke:none;stroke-width:4;stroke-miterlimit:4;stroke-dasharray:none;stroke-opacity:1"
       id="rect4136"
       width="385.71429"
       height="391.42856"
       x="37.142857"
       y="629.50507"
       rx="41.868999"
       ry="35.879002" />
    <path
       style="fill:#000000;fill-opacity:1;stroke:none;stroke-width:4;stroke-miterlimit:4;stroke-dasharray:none;stroke-opacity:1"
       id="path4142"
       d="m 215.9888,864.76788 c 3.24213,-6.27267 6.22982,-12.67553 9.51576,-18.92459 2.15666,-4.4062 4.43999,-8.68921 6.06927,-13.32254 1.94943,-4.56271 3.67631,-9.2148 5.31281,-13.89743 2.26546,-6.18947 4.48846,-12.36803 5.8615,-18.82255 1.29545,-5.05765 2.787,-10.01122 3.50692,-15.19436 0.62228,-5.31943 0.32165,-10.67295 1.229,-15.95745 1.1793,-4.92956 1.70667,-9.95492 2.00653,-15.00302 0.3292,-6.39754 0.28419,-12.80723 0.27611,-19.21114 -0.0154,-5.89216 -0.0294,-11.78432 -0.0368,-17.67649 0.0317,-6.40997 0.0371,-12.81988 0.0234,-19.23 0.3056,-5.93917 -0.18658,-11.74841 -1.15678,-17.59495 -0.56942,-5.32481 -1.46292,-10.51494 -2.73294,-15.71031 -1.11188,-4.3622 -2.34696,-8.77272 -3.88714,-13.01049 -1.14453,-4.06449 -3.11946,-7.6072 -5.39207,-11.11223 -1.3627,-2.60164 -0.64634,-1.41194 -2.10615,-3.59459 0,0 36.65022,-21.43812 36.65022,-21.43812 l 0,0 c 1.5782,2.44687 0.88302,1.23802 2.11468,3.60963 2.44524,3.7544 4.56424,7.59115 5.82203,11.92584 1.68243,4.35981 2.86886,8.99793 4.10087,13.49085 1.25581,5.312 2.39595,10.55518 2.79242,16.02073 1.01057,6.06904 1.92419,12.05166 1.43095,18.23689 -0.0131,6.39976 -0.008,12.7993 0.0316,19.19889 8.7e-4,5.90064 0.003,11.80129 -0.004,17.70193 -0.0117,6.45308 -0.0322,12.90624 -0.11519,19.35887 -0.19946,5.21444 -0.47928,10.45339 -1.66712,15.55432 -1.2334,5.17897 -1.20696,10.33443 -1.42502,15.65017 -0.50153,5.32096 -1.43225,10.54834 -3.46288,15.52701 -1.16664,6.69394 -3.31349,13.02572 -5.48766,19.43938 -1.87402,4.61378 -3.17081,9.4446 -5.13146,14.02776 -1.13595,2.1714 -1.50933,4.42496 -2.49905,6.6594 -2.28318,5.15462 0.10496,-0.76496 -2.45912,4.28396 -0.44625,0.8787 -0.74684,1.82407 -1.12026,2.7361 -3.23395,6.21458 -6.65474,12.35789 -9.4159,18.79459 0,0 -38.64441,17.48394 -38.64441,17.48394 z"
       inkscape:connector-curvature="0" />
    <path
       style="fill:#000000;fill-opacity:1;stroke:none;stroke-width:4;stroke-miterlimit:4;stroke-dasharray:none;stroke-opacity:1"
       id="path4144"
       d="m 250.60993,847.32337 c 10.07411,-3.5017 20.7461,-4.58929 31.12984,-6.76361 10.41287,-1.92606 20.9922,-2.68416 31.55384,-3.21271 5.31803,-0.1898 2.71892,-0.11365 7.7972,-0.23287 0,0 -34.03979,24.85625 -34.03979,24.85625 l 0,0 c -4.95826,0.12142 -2.42208,0.0442 -7.6084,0.23586 -10.42421,0.54404 -20.84229,1.45517 -31.0777,3.59623 -10.57042,1.90345 -21.19294,3.69432 -31.33302,7.37432 0,0 33.57803,-25.85347 33.57803,-25.85347 z"
       inkscape:connector-curvature="0" />
    <path
       style="fill:#000000;fill-opacity:1;stroke:none;stroke-width:4;stroke-miterlimit:4;stroke-dasharray:none;stroke-opacity:1"
       id="path4146"
       d="m 255.95097,844.3741 c 6.96892,-1.3308 13.60801,-3.68663 20.42788,-5.55281 4.61546,-2.74123 9.70049,-3.76644 14.96216,-4.29611 5.36435,-1.74867 10.95704,-2.4352 16.55661,-2.8607 5.68188,-0.51355 11.16661,-0.48548 16.71624,0.78697 4.52306,0.94311 8.66677,3.16769 12.76485,5.22974 3.57057,1.10317 7.09103,2.02732 10.62769,3.26165 0,0 -35.13026,23.78383 -35.13026,23.78383 l 0,0 c -3.66034,-1.24491 -7.52037,-1.91028 -10.96859,-3.73142 -3.80675,-1.93758 -7.81506,-3.60636 -12.05449,-4.28524 -5.28302,-0.80831 -10.63655,-0.27749 -15.93825,0.15708 -5.56679,0.67583 -10.98674,1.96438 -16.47868,3.05208 -5.05795,0.9849 -9.68394,2.99714 -14.52859,4.68201 -6.79887,2.05131 -13.72102,3.60872 -20.47163,5.81064 0,0 33.51506,-26.03772 33.51506,-26.03772 z"
       inkscape:connector-curvature="0" />
    <path
       style="fill:#000000;fill-opacity:1;stroke:none;stroke-width:4;stroke-miterlimit:4;stroke-dasharray:none;stroke-opacity:1"
       id="path4148"
       d="m 254.0009,846.20423 c 25.73861,3.78615 13.80512,1.57063 -23.88894,27.28321 -5.03046,-0.0344 -10.06125,-0.0421 -15.09187,-0.0681 -17.70252,0.0816 -12.66572,4.45273 32.17443,-24.98716 0.54917,-0.36056 1.31384,0.0151 1.97078,0.0207 0.75913,0.006 1.51828,0.0102 2.27742,0.0153 22.3988,5.64945 -18.17966,28.23323 -32.47014,27.60745 -1.90275,0.53758 -2.81125,-0.56793 -3.93961,-1.89492 0,0 36.28382,-22.59677 36.28382,-22.59677 l 0,0 c -0.43887,-1.09503 0.8187,-0.92283 1.64594,-1.11608 14.36634,-6.58875 -11.50045,5.20922 -33.97063,21.08127 -3.05436,2.15748 4.89975,2.40281 0.11502,1.93057 -0.6551,-0.0647 -1.31563,-0.0495 -1.97345,-0.0743 -1.44839,0.0152 -5.47155,0.96981 -4.345,0.0593 32.91009,-26.59767 19.47253,-25.30256 36.46677,-24.90774 4.94557,-0.004 9.97178,0.19667 14.8529,-0.69625 -38.84649,28.19933 -20.27418,25.55581 -44.75312,22.77148 0,0 34.64568,-24.42805 34.64568,-24.42805 z"
       inkscape:connector-curvature="0" />
    <path
       style="fill:#000000;fill-opacity:1;stroke:none;stroke-width:4;stroke-miterlimit:4;stroke-dasharray:none;stroke-opacity:1"
       id="path4150"
       d="m 216.2549,871.26317 c -2.06324,-1.3914 -3.89396,-3.18253 -5.29458,-5.2403 0,0 12.89384,-7.56828 12.89384,-7.56828 l 0,0 c 1.25704,1.86591 2.91336,3.53519 4.92839,4.56583 0,0 -12.52765,8.24275 -12.52765,8.24275 z"
       inkscape:connector-curvature="0" />
    <path
       style="fill:#ff0000;fill-opacity:1;stroke:none;stroke-width:4;stroke-miterlimit:4;stroke-dasharray:none;stroke-opacity:1"
       id="path4152"
       d="m 215.81847,863.78648 c 5.01499,-5.40599 11.77104,-9.58382 18.93726,-11.395 1.97536,-0.47387 3.8336,0.0262 5.42475,1.22694 1.42985,1.47179 1.7201,3.28664 1.19614,5.20991 -0.37833,0.95969 -0.99787,2.0957 -1.92569,2.65266 -13.11756,7.87431 -8.46306,6.64291 -14.31131,8.08612 -1.74447,0.37855 -3.54666,0.12996 -5.16658,-0.59474 -1.62417,-0.61985 -2.81765,-1.72423 -3.6067,-3.253 -0.67988,-1.65064 -0.63542,-3.33821 0.46702,-4.76329 3.67769,-2.05801 11.7175,-10.23917 17.89661,-7.1821 1.6336,1.25426 2.03851,3.19481 2.09413,5.14721 -0.11627,1.93205 -1.10213,3.29377 -2.43053,4.58434 -7.94143,5.60079 -10.58694,8.16511 -18.03917,8.40295 -2.13663,-0.23458 -3.11907,-1.88164 -3.48904,-3.83044 0.0171,-0.7055 0.0667,-1.79394 0.79272,-2.21681 3.79334,-2.20948 9.64048,-8.43596 15.38669,-7.58322 1.84199,0.69123 2.79659,1.9217 3.41529,3.73887 0.37268,1.71304 0.0816,3.29545 -1.3614,4.36336 -4.48487,2.70238 -11.27532,9.37627 -17.74949,8.32629 -1.65595,-0.26963 -3.23051,-0.90651 -4.74069,-1.62826 -1.85784,-0.61049 -3.12655,-1.94148 -3.43834,-3.8716 0.70957,-5.2389 12.54411,-8.16116 14.09798,-8.98491 0.6532,-0.34627 1.99687,-0.0805 2.66802,0.0424 1.76468,0.28185 3.03614,1.59821 3.9268,3.06713 0.75486,1.54443 0.82763,3.21152 -0.21462,4.61829 -3.90367,4.16094 -9.69162,10.05559 -15.35168,8.43731 -0.48219,-0.13786 -0.91116,-0.41936 -1.36844,-0.6253 -1.43331,-0.99847 -2.15241,-2.54871 -1.73418,-4.2544 2.15535,-5.16495 11.77435,-7.71924 14.22622,-9.07724 0.68191,-0.37769 1.89217,-0.20593 2.60772,-0.0988 1.97518,0.27418 3.23822,1.73274 3.96734,3.48725 0.16578,0.80047 0.49656,2.56609 -0.43202,3.1281 -12.89063,7.80196 -8.40578,7.11267 -14.36044,7.88125 -1.91564,0.27494 -3.68219,0.0441 -5.15959,-1.2497 -0.55171,-0.58999 -1.14603,-2.54982 -0.24158,-3.11478 12.57574,-7.85547 8.39021,-6.97557 14.29078,-8.07488 2.28658,-0.41104 3.56381,-0.21713 4.89669,1.77646 0.34067,0.79556 0.74745,2.42613 -0.2583,3.01159 -13.15497,7.65767 -8.48458,7.06675 -14.47723,7.6772 -1.93196,0.2417 -3.72187,0.0208 -5.21542,-1.27853 -0.66199,-0.76497 -1.71793,-2.96021 -0.39387,-3.72879 4.48994,-2.60631 9.07695,-5.04168 13.61542,-7.56252 1.73092,0.13088 3.16787,0.84095 4.28402,2.15702 2.80564,5.27833 -7.83056,7.85324 -13.64643,11.20412 -1.80063,0.48394 -3.29904,-0.0468 -4.90336,-0.80897 -1.59617,-1.07111 -2.18421,-2.65665 -1.23817,-4.36532 4.48253,-2.64195 8.91833,-5.36483 13.44757,-7.92586 1.51572,-0.85705 2.98057,0.53462 3.72775,1.6511 0.25014,0.68588 0.40388,0.88377 0.35796,1.62758 -0.0338,0.54822 -0.38341,1.66749 -0.8908,1.97387 -4.44769,2.68572 -8.99252,5.20717 -13.48879,7.81076 -1.89373,0.0244 -3.04455,-1.55561 -4.04082,-2.96051 -0.90951,-1.50134 -1.12785,-3.14692 -0.11164,-4.62485 2.89527,-1.54528 12.66504,-12.02908 17.05069,-5.77488 0.49357,0.96367 1.17014,3.14965 -0.13511,3.89683 -4.47275,2.5604 -9.03908,4.95374 -13.55863,7.43061 -1.97357,-0.17303 -2.78691,-1.82593 -3.28065,-3.5287 -0.63019,-2.30796 0.21265,-4.01098 1.95807,-5.50142 4.87741,0.57065 9.9439,-7.96954 15.95064,-8.29443 0.93753,-0.0507 1.93517,0.19806 2.85562,0.34521 1.52395,0.75302 3.12597,1.1356 4.80286,1.32885 0,0 -12.24822,8.62366 -12.24822,8.62366 l 0,0 c -1.6435,-0.29934 -3.18132,-0.88097 -4.78758,-1.30179 -0.59003,-0.0566 -1.08441,-0.13126 -1.6785,-0.0817 -4.87177,0.40604 -14.93366,9.02261 9.01977,-6.07013 -1.60011,0.8134 -3.16891,1.76865 -2.69465,3.799 0.28491,1.20676 0.67158,2.06273 2.05601,1.55884 -4.13093,2.38354 -8.29968,4.70269 -12.39277,7.15062 -0.18814,0.11252 0.43434,-0.0667 0.64564,-0.12509 0.86311,-0.23834 0.96211,-0.8242 0.566,-1.57462 -0.48171,-0.59023 -1.07958,-0.73753 -1.84128,-0.53208 -0.18705,0.0505 -0.69415,0.34293 -0.52735,0.24437 4.05824,-2.39774 8.13603,-4.76223 12.20405,-7.14335 -1.52752,0.38757 -1.68341,1.19106 -0.94052,2.54072 0.75914,1.01962 1.53808,2.10856 2.85411,1.22205 -4.05949,2.38708 -8.13687,4.74399 -12.17846,7.16124 -0.66089,0.39527 2.36341,-1.2105 1.53187,-1.57709 -0.21616,-0.28082 -0.239,-0.43481 -0.61989,-0.47723 -0.66252,-0.0738 -1.2975,0.33398 -1.84804,0.62307 4.04391,-2.40068 8.08783,-4.80137 12.13174,-7.20206 -1.35608,0.49956 -1.64035,0.98639 -0.16372,1.75679 1.41094,0.55472 2.80135,0.5138 4.15741,-0.22922 -4.07375,2.39103 -8.1718,4.74115 -12.22125,7.1731 -0.16909,0.10155 0.38401,-0.0967 0.56577,-0.17327 0.43517,-0.18333 0.94623,-0.60839 0.71568,-1.06173 -0.88767,-0.8577 -2.12139,-1.22484 -3.29299,-0.7224 4.08318,-2.36394 8.2121,-4.6506 12.24956,-7.09182 0.84572,-0.51136 -1.63796,-8.9e-4 -1.26691,0.73331 0.0785,0.15537 0.2205,0.26945 0.33074,0.40418 1.36479,0.78534 2.99038,0.54927 4.46818,0.23558 5.27837,-1.80264 -0.14939,-0.004 -11.47299,6.83443 -0.4276,0.25823 2.54164,-0.53462 1.32757,-0.84453 -0.90074,-1.21748 -2.57495,-0.55212 -3.79224,-0.18326 -4.9925,2.6232 1.16888,-0.59858 11.44505,-6.84323 0.0539,-0.0328 -1.78378,0.54273 -0.96778,0.80674 1.34007,0.77132 2.93228,0.52935 4.36357,0.1375 5.09251,-2.24044 -0.29366,0.0961 -11.47722,6.85549 -0.97763,0.59088 1.13215,-0.19387 1.26398,-0.88505 0.0359,-0.18848 -0.0155,-0.38345 -0.0232,-0.57517 -0.37784,-1.41492 -1.5823,-2.00185 -2.98361,-1.96227 -0.6236,0.0965 -0.87686,0.10628 -1.49488,0.33705 -0.24046,0.0898 -0.91643,0.46104 -0.69579,0.32988 20.35618,-12.10058 15.59142,-9.06249 11.14821,-6.61273 -0.15436,0.25281 -0.43329,0.43467 -0.52653,0.71581 -0.22308,0.67266 0.57072,1.26481 1.08098,1.464 0.95342,0.26063 1.56201,-0.0539 1.5582,-0.0516 -20.47952,12.051 -15.8159,8.8088 -11.12219,6.5231 0.99744,-1.0902 1.7855,-1.17705 1.05849,-2.96465 -0.73007,-1.17538 -1.72131,-1.86854 -3.13933,-1.87584 -0.66691,0.0482 -0.90751,0.0381 -1.58268,0.21116 -0.25131,0.0644 -0.96036,0.38146 -0.7375,0.24865 10.98575,-6.54636 16.96434,-7.78636 11.19226,-7.00185 -0.83254,1.1047 1.79271,2.06317 2.4649,2.3209 1.44234,0.55577 2.86393,1.17871 4.44179,1.18082 0.82175,-0.074 1.62082,-0.1867 2.40437,-0.46244 0.24978,-0.0879 0.95985,-0.44377 0.73164,-0.30946 -11.36179,6.68697 -16.47611,9.05867 -11.51735,6.73665 1.26552,-0.93122 2.23446,-0.70762 2.1725,-2.68499 -0.35441,-1.22826 -0.99639,-2.15518 -2.4095,-2.13959 -0.48983,0.0924 -1.86982,0.65223 -1.44175,0.39685 4.03587,-2.40767 8.16331,-4.66013 12.18946,-7.08403 0.35062,-0.21109 -0.84232,0.12068 -1.17343,0.36123 -0.1287,0.0935 -0.1994,0.24792 -0.29911,0.37188 -0.1043,1.46732 0.85303,2.03227 2.22967,1.89958 6.15305,-0.54526 13.33019,-6.44179 -7.94515,6.0416 1.37701,-0.85168 2.46933,-1.83109 2.99416,-3.40938 0.14977,-1.2399 0.0726,-2.87965 -1.18147,-3.51949 -5.33064,-1.18681 -16.09632,8.01482 8.51792,-6.72777 -1.50544,0.47162 -1.87424,1.35461 -1.39373,2.86148 0.60518,1.21673 1.73244,1.86698 3.00165,2.28421 1.55655,0.36576 3.04387,0.43177 4.53729,-0.25337 4.78723,-2.60156 1.35534,-0.74653 -11.42066,6.73802 -1.32031,0.77348 3.71387,-2.32622 2.27873,-1.86418 0.57855,-1.34567 1.0388,-2.32524 -0.2562,-3.46952 -1.49255,-0.79229 -3.00331,-0.75616 -4.59257,-0.19013 -4.71756,1.79939 -11.74531,6.47656 9.51315,-5.86506 0.17737,-0.10297 -0.85811,0.40146 -2.06944,1.46357 -0.2733,0.23963 -0.51922,0.50881 -0.77883,0.76321 0,0 -13.79683,5.89453 -13.79683,5.89453 z"
       inkscape:connector-curvature="0" />
    <path
       style="fill:#000000;fill-opacity:1;stroke:none;stroke-width:4;stroke-miterlimit:4;stroke-dasharray:none;stroke-opacity:1"
       id="path4158"
       d="m 225.75237,862.00955 c -0.79123,2.20323 0.0185,4.84062 2.36824,5.75703 0.40826,0.15922 0.87258,0.082 1.30887,0.12301 5.47012,-3.36928 -4.18122,2.60237 -10.70658,5.75576 -0.38318,0.18516 0.54037,-0.67299 0.70082,-1.06715 0.43192,-1.06111 0.30584,-2.22738 0.12451,-3.31545 0.35968,-0.19879 -0.53865,-1.00181 -0.18992,-1.221 4.34514,-2.73111 8.8428,-5.21303 13.31472,-7.73118 0.15377,-0.0866 0.36196,0.003 0.52571,-0.0624 0.16318,-0.0655 0.57451,-0.40369 0.42101,-0.3179 -4.1319,2.30944 -8.24026,4.66076 -12.36039,6.99114 0.69114,0.27088 1.13354,-1.50437 1.29865,-1.60326 13.18483,-7.89742 8.28633,-8.87063 13.83503,-7.61606 4.45865,0.60831 17.80466,-8.69547 -11.06297,6.66264 -0.25583,0.13611 0.49472,-0.31719 0.68387,-0.53672 0.59105,-0.68596 0.47199,-0.87047 0.54121,-1.72129 -0.21334,-1.40336 -1.8195,-2.3668 -1.33174,-3.85627 0.44201,-0.59149 1.33848,-1.04974 0.23241,-1.25196 -4.15135,3.91214 -3.41335,2.04202 11.30038,-6.06697 0.22502,-0.12401 -0.38661,0.34196 -0.54889,0.54115 -0.32294,0.39639 -0.30012,0.46135 -0.40143,0.87929 0.0454,0.12524 0.0354,0.28856 0.13614,0.37572 0.32507,0.28129 0.73925,-0.096 0.97735,-0.22151 -4.07573,2.18699 -8.12063,4.43244 -12.2272,6.56097 -0.31492,0.16323 0.59266,-0.4 0.83698,-0.65716 0.26126,-0.27498 0.4432,-0.61567 0.6648,-0.9235 0.39412,-0.78936 0.77006,-1.65996 -0.13208,-2.27364 -0.24031,-0.16346 -0.5281,-0.39516 -0.80972,-0.32335 -0.34395,0.0877 -1.09399,0.88806 -0.77718,0.72798 3.9593,-2.00065 7.82663,-4.17833 11.73995,-6.2675 -2.07699,3.35435 -3.3118,7.61657 -2.12661,11.48292 0.19904,0.26212 0.29257,0.66158 0.59713,0.78636 0.17486,0.0716 0.60292,-0.45017 0.43501,-0.3635 -4.19073,2.16302 -8.31084,4.46187 -12.51506,6.59854 -0.26673,0.13556 0.5104,-0.3388 0.6813,-0.58439 0.51408,-0.73876 0.38982,-1.1448 0.39646,-1.98572 -0.24086,-0.81954 -0.60591,-1.90891 -1.48904,-2.28347 -0.17916,-0.076 -0.4331,-0.14482 -0.58343,-0.0212 -0.21681,0.17822 -0.58147,0.90233 -0.33199,0.77376 4.12311,-2.12488 8.0765,-4.56407 12.11475,-6.8461 -6.43225,7.43406 13.90123,-5.35795 -14.39565,8.74698 1.0761,-0.42198 0.85106,-1.52509 0.49411,-2.37642 -0.11554,-0.44122 -0.35974,-0.82635 -0.004,-1.24248 0.1828,-0.21358 0.47011,-0.31071 0.68503,-0.49192 0.78844,-0.66478 1.4883,-1.42604 2.28089,-2.08922 4.84922,-2.65607 9.58338,-10.23235 14.33142,-6.976 1.54941,1.06264 2.1757,1.26723 4.03205,1.76882 1.04639,0.20359 2.04297,0.0263 3.03185,-0.33526 0.21297,-0.0779 0.80842,-0.41045 0.61189,-0.29733 -12.3489,7.10802 -17.08105,8.72017 -12.34127,7.09232 -0.27366,-0.38267 -0.87702,-0.41446 -1.29824,-0.28581 -0.0497,0.0152 -0.0767,0.15219 -0.10894,0.11146 -0.23444,-0.29594 -0.38371,-0.65034 -0.57556,-0.97552 0.21931,0.005 -0.0306,0.69159 -0.0191,0.68562 20.98513,-10.87661 14.39764,-9.32507 10.63231,-5.04124 -0.30256,0.52583 -0.9989,1.37445 -0.66563,2.07359 0.0807,0.16923 1.18807,-1.12819 0.2291,-0.64881 -4.22087,2.10998 -8.28691,4.51642 -12.43037,6.77462 0.93946,-1.50745 1.46483,-3.90182 0.0719,-5.371 -0.20046,-0.21143 -0.51635,-0.27006 -0.77453,-0.40509 -0.2919,0.063 -0.61109,0.0505 -0.8757,0.18886 -0.31575,0.16513 -1.1267,0.86301 -0.81289,0.69421 4.0075,-2.15581 7.90702,-4.5084 11.91367,-6.66579 0.28064,-0.15111 -0.48163,0.41781 -0.71442,0.63553 -0.21529,0.20136 -0.37712,0.46874 -0.62937,0.62128 -4.44762,2.68946 -8.96552,5.26095 -13.44827,7.89142 -1.32999,0.0173 -2.66235,-0.0555 -3.8988,0.53918 -0.30185,0.14518 -1.14205,0.69994 -0.85028,0.53545 4.02286,-2.26784 8.02967,-4.56405 12.0445,-6.84607 9.3e-4,0.069 -1.25711,1.06236 -0.66713,0.30837 -4.31613,2.82346 -8.63225,5.64693 -12.94838,8.4704 0.75543,-0.87082 -3.07854,1.55526 -2.37314,1.16516 21.57562,-11.93193 13.85823,-9.37384 10.68529,-5.56518 -0.11794,0.15804 -0.18556,0.37131 -0.35383,0.47412 -4.38493,2.67927 -9.25228,4.64318 -13.26821,7.84918 -0.73351,0.58558 35.50635,-20.68663 -0.92093,0.53049 -4.01955,2.34119 16.30885,-8.91877 12.06789,-7.0077 -10.05321,15.02161 -9.99139,4.52564 -16.1259,8.68043 4.01395,-2.29022 8.00935,-4.61329 12.04187,-6.87066 0.20098,-0.1125 -0.36458,0.28189 -0.5395,0.43173 -0.0971,0.0832 -0.15156,0.23589 -0.27564,0.26655 -0.33027,0.0816 -0.064,-1.19214 0.004,-1.38554 -4.12896,2.37654 -8.25792,4.75309 -12.38688,7.12963 0.55387,-0.41474 0.92046,-1.06915 0.17555,-1.42463 -0.66511,0.14173 -0.3608,-0.0297 -0.82958,0.63999 4.11134,-2.31187 8.20811,-4.64983 12.33401,-6.93562 0.15831,-0.0877 -0.2942,0.21282 -0.425,0.33791 -0.26526,0.2537 -0.19337,0.30245 -0.23173,0.68589 -0.12829,1.11079 -0.16641,2.19477 0.32739,3.21929 0.55894,1.40997 1.7735,1.62686 3.13454,1.81646 1.11707,0.13177 2.2797,0.18792 3.34384,-0.26355 0.22873,-0.097 0.84196,-0.52738 0.62545,-0.4055 -4.108,2.31256 -8.20074,4.65214 -12.30111,6.9782 1.29635,-0.86341 1.44748,-2.43936 1.28566,-3.86536 -0.17409,-1.59496 -0.44977,-2.95939 -1.83044,-3.89593 -1.84467,-0.84723 -2.90009,-0.77872 -4.50899,0.40249 21.73692,-12.59463 11.46813,-8.75428 9.34304,-2.81787 -0.43608,1.63612 -0.69919,3.35184 -0.0992,4.97221 0.9119,1.08944 2.58802,0.98414 3.89238,1.05001 1.46076,-0.34737 2.98625,-0.94974 4.188,-1.86611 4.61095,-2.49316 4.45931,-2.41894 -11.56837,6.69193 -0.19314,0.10979 0.37071,-0.24849 0.5328,-0.40042 0.50175,-0.47034 0.94287,-1.06337 1.34079,-1.62071 0.6472,-1.32053 1.62131,-2.43756 2.27245,-3.75031 0.57136,-1.59809 0.75855,-3.34022 0.63903,-5.02864 -0.38013,-1.32132 -1.95707,-1.43463 -3.11131,-1.18847 -5.04295,2.90982 5.54584,-3.20418 11.552,-6.43527 0.28888,-0.1554 -0.51564,0.40891 -0.74251,0.64583 -0.75262,0.78598 -1.192,1.75056 -1.66062,2.71501 -0.89585,1.80875 -1.47659,3.67736 -1.10654,5.69064 0.61449,1.18793 2.15093,1.7221 3.38265,2.1023 1.66032,0.5623 3.16493,0.16104 4.8036,-0.16066 4.56465,-2.12702 10.9879,-6.02425 -10.31673,5.98653 -0.33583,0.18933 0.65895,-0.40174 0.97245,-0.62613 0.86872,-0.62177 0.88418,-0.70521 1.60734,-1.45751 1.16781,-1.46164 1.66425,-3.20642 1.50806,-5.05133 -0.32359,-1.4763 -1.08315,-2.08628 -2.49461,-2.40682 -1.81868,-0.27378 -3.66615,-0.24398 -5.50044,-0.24402 -0.87365,-0.0288 -1.85354,0.0816 -2.67174,0.42841 -0.23485,0.0995 -0.86712,0.53716 -0.6449,0.41194 11.95194,-6.73506 16.0873,-9.53254 11.52518,-6.47253 -1.25792,1.18414 -1.61453,2.90029 -1.61568,4.56879 0.39697,2.11859 2.70487,2.89684 4.51032,3.58879 2.12474,0.7193 4.37247,0.34847 6.31644,-0.6965 4.97541,-2.43514 1.91585,-0.9598 -11.24855,6.47267 -0.2426,0.13697 0.46921,-0.30053 0.70193,-0.45369 0.65446,-0.43073 1.22633,-0.93516 1.83748,-1.4238 1.20712,-0.7879 2.39283,-1.623 3.44601,-2.61025 4.60883,-4.27252 7.43627,-4.74374 15.17853,-9.16621 1.29027,-0.73702 -0.0716,-0.09 1.31646,-0.70688 1.69454,-0.59375 3.25509,-0.78458 4.65252,0.48109 2.97008,5.45647 -1.04605,2.82549 -12.79443,8.01578 -0.0322,0.0142 -0.1916,-0.72569 -0.412,-1.71485 -0.0716,-0.69362 -0.56241,-1.21033 -0.76695,-1.85107 -1.63297,-5.11523 8.79948,-6.19938 13.52222,-8.75435 1.32292,0.0471 0.63618,0.0309 2.06031,0.0446 0,0 -12.06881,8.80597 -12.06881,8.80597 l 0,0 c -1.40237,0.0706 -0.73665,-0.002 -1.99924,0.1981 4.14466,-2.38746 8.39137,-4.60592 12.43399,-7.16237 0.17975,-0.11367 -0.33163,-0.26978 -0.51734,-0.37343 -0.0767,-0.0428 -0.21869,-0.13779 -0.25691,-0.0587 -0.26652,0.5514 1.04965,1.4862 0.77986,2.05498 0.0668,0.28504 0.12493,0.57223 0.20025,0.85513 0.0607,0.22788 0.40519,0.54776 0.20751,0.67634 -4.24289,2.75978 -8.72449,5.13395 -13.08673,7.70093 -0.004,-0.12768 0.0111,-0.26029 -0.03,-0.38602 -1.17634,-0.45175 -2.59808,0.38967 -3.64981,0.83399 -4.64337,2.51188 -8.95494,5.22865 10.8291,-6.41089 0.33601,-0.19769 -0.64896,0.17903 -1.20391,0.7208 -0.17794,0.17371 -0.31422,0.38551 -0.47132,0.57826 -1.18085,0.86592 -2.14078,1.99604 -3.38448,2.79221 -0.80925,0.39445 -1.18915,0.84188 -1.85817,1.40968 -4.41196,3.74447 -9.79221,6.48998 -15.17935,8.67352 -2.35353,0.63913 -4.66748,0.75382 -6.94935,-0.27441 -2.33352,-1.06789 -4.76489,-2.28875 -5.4275,-4.97904 -0.20063,-1.96033 0.13953,-3.97965 1.07049,-5.72976 3.99795,-5.3795 11.07895,-8.95086 17.75658,-8.87128 1.94793,0.0271 3.93635,0.0216 5.81122,0.61937 1.76691,0.77653 2.82708,1.97289 3.34903,3.85436 0.31531,2.1516 0.0351,4.21922 -1.04193,6.1464 -0.65065,0.95711 -1.34981,1.96128 -2.37591,2.56574 -4.08449,2.40613 -9.88565,7.22823 -15.5992,8.42163 -1.79498,0.28572 -3.55506,0.16873 -5.27056,-0.48899 -1.69505,-0.73268 -3.38976,-1.59206 -4.13392,-3.39254 -0.56227,-2.28173 -0.28231,-4.45282 0.70403,-6.59215 3.09405,-6.65515 6.29553,-11.43571 16.57685,-11.93308 1.93302,0.30592 3.6269,1.04519 4.25244,3.06022 0.27533,1.87845 0.0577,3.80732 -0.30604,5.66396 -0.43946,1.50311 -1.2874,2.66703 -2.18704,3.92164 -2.4151,5.94108 -11.02062,8.00457 -15.66281,10.91749 -1.53387,0.639 -2.98494,1.37278 -4.71223,1.11701 -1.91203,-0.23782 -3.75445,-0.65414 -4.80709,-2.4381 -0.77185,-1.90493 -0.72624,-3.86812 -0.3145,-5.86741 1.76536,-7.43372 9.09636,-9.16134 15.87118,-12.9421 1.94756,-0.60816 3.82322,-0.17982 5.50533,0.97452 1.49316,1.3324 2.20906,2.87133 2.39848,4.86525 0.32323,1.8213 0.27632,3.62785 -0.59982,5.30898 -7.14966,4.17543 -10.68778,9.19636 -17.92146,7.80552 -1.69905,-0.46967 -3.14658,-1.24616 -3.88688,-2.94002 -0.63067,-1.2488 -0.87321,-2.53033 -0.74821,-3.9287 0.0332,-0.43737 -0.0742,-0.88002 -0.0233,-1.31569 0.67262,-5.76449 10.16782,-10.95404 15.40329,-8.10711 5.65098,5.74177 -10.97605,11.54646 -12.3049,11.65758 -0.23838,-0.0359 -0.50444,0.009 -0.71514,-0.1078 -0.88587,-0.49248 -1.83545,-2.27491 -0.60689,-3.04497 4.44841,-2.78825 9.03254,-5.35385 13.5488,-8.03078 0.88952,-0.31803 1.61553,-0.45633 2.54171,-0.54811 0.15441,-0.0153 0.58882,-0.1734 0.45614,-0.0929 -12.94575,7.85113 -15.6758,11.16937 -12.41042,7.25091 2.04362,-5.41832 -0.72167,1.57842 13.50418,-8.36392 3.91377,-2.73531 -16.46101,9.68464 -12.38732,7.19375 43.80588,-26.78546 -8.03896,5.82946 1.40064,-0.71569 4.25911,-5.50832 0.85986,-1.61514 14.76193,-9.68692 0.91828,-0.53318 2.03627,-0.58029 3.0538,-0.45193 -4.87656,3.55083 -12.00973,12.2124 -13.06345,6.95732 -0.14625,-0.7294 0.12081,-0.95268 0.4527,-1.55806 4.81852,-2.8408 9.14956,-6.94639 14.57098,-8.32356 0.98462,-0.25012 2.04972,-0.18062 3.01451,-0.49237 0.25481,-0.0823 0.48149,-0.2345 0.72224,-0.35175 -4.03818,2.39489 -8.04932,4.83595 -12.11453,7.18467 -0.255,0.14733 0.46174,-0.36738 0.67198,-0.5736 0.24608,-0.24138 0.4012,-0.58484 0.69417,-0.76646 4.51157,-2.79691 9.03684,-5.57953 13.68305,-8.14656 0.82694,-0.45689 1.82152,0.0933 2.54867,0.34975 0.35996,0.32275 0.7799,0.5891 1.07987,0.96824 1.54152,1.94835 1.47702,4.57454 0.74675,6.80525 -4.46701,2.73126 -8.79293,5.70794 -13.40102,8.19379 -1.28675,0.69414 -2.31539,-4.40097 -1.15406,-4.52609 3.346,-4.94458 12.26861,-14.43186 16.44394,-8.60973 -0.18233,-0.26704 -0.40419,-0.51101 -0.54699,-0.80111 -0.10859,-0.2206 0.45441,0.18911 0.67392,0.29988 0.55316,0.27914 0.978,0.53962 1.37691,1.03501 0.20075,0.24929 0.33047,0.54825 0.4957,0.82237 1.58788,6.71681 -11.17658,10.15504 -16.97787,8.82654 -1.28632,-0.40297 -2.426,-0.88 -3.63829,-1.45342 -0.15812,-0.0748 -0.31635,-0.17832 -0.49114,-0.18475 -0.12721,-0.005 -0.45967,0.21768 -0.34955,0.15382 4.11891,-2.38893 8.25194,-4.75344 12.37791,-7.13015 -0.99377,0.44063 -1.66277,0.99369 -2.3894,1.81084 -0.18495,0.20798 -0.28491,0.50836 -0.52487,0.64934 -0.27894,0.16386 -0.69883,-0.38697 -0.79028,-0.47831 0.088,0.58046 -0.0584,-0.25642 0.29907,0.8327 0.35315,1.07606 0.25859,2.2033 0.008,3.29155 -4.57769,2.32078 -9.03278,4.90117 -13.73309,6.96233 -1.33054,0.58346 -0.1834,-5.03929 0.25972,-4.48203 6.99671,-4.24979 13.87603,-13.55522 17.34872,-4.22281 0.0758,0.49004 0.21954,0.97432 0.22731,1.47012 0.10497,6.70284 -12.61531,14.88708 -16.07426,8.09622 -0.16842,-0.55017 -0.39913,-1.08502 -0.50528,-1.65051 -0.71162,-3.7911 0.78554,-7.69583 1.95454,-11.23008 4.61245,-2.84132 9.08009,-5.93238 13.83734,-8.52398 1.61614,-0.88042 3.71257,2.27165 3.74563,3.55954 0.0113,0.44081 -0.18127,0.86309 -0.2719,1.29464 -2.88205,6.26526 -5.0852,5.02578 -15.07503,9.84479 -0.52267,0.25213 -1.68854,-0.88969 -1.89288,-1.16056 -0.19337,-0.25631 -0.27704,-0.5793 -0.41557,-0.86895 -0.10154,-0.64663 -0.28271,-2.15968 0.43397,-2.62241 1.334,-0.86131 9.77143,-9.62449 15.16241,-7.85068 1.24969,0.90254 1.94961,2.14818 1.07631,3.60251 -1.09332,0.27821 0.7713,-0.11575 -0.68628,-0.19657 -0.15404,-0.009 0.01,0.20281 0.38409,0.85683 0.75637,1.32213 0.43536,0.6613 1.01348,2.24694 0.0621,0.47235 0.19405,0.9407 0.18624,1.41704 -0.006,0.34934 -0.27214,1.92793 -0.72377,2.20198 -11.56478,7.01756 -8.77526,7.88131 -15.10973,7.61491 -5.21109,1.03051 -1.02587,0.25477 12.06983,-7.56244 0.0809,-0.0483 -0.0889,0.16705 -0.11943,0.2562 -0.26746,0.78239 -0.34944,1.62284 -0.85226,2.31391 -4.50285,2.56198 -8.96612,5.19481 -13.50854,7.68596 -0.18228,0.1 -0.41423,0.0369 -0.62052,0.0627 -0.1796,0.0224 -0.68982,0.17857 -0.53676,0.082 4.11667,-2.59833 8.3469,-5.01373 12.46458,-7.61046 0.0873,-0.055 -0.25378,-0.14847 -0.30406,-0.0583 -0.0944,0.16921 0.008,0.38743 0.0124,0.58115 1.36028,8.65798 -4.60404,13.89087 -15.59509,14.06344 -0.5327,-0.21262 -1.10697,-0.34163 -1.59812,-0.63787 -2.53337,-1.52802 -3.90978,-4.39787 -3.41683,-7.28917 0,0 13.58186,-6.37854 13.58186,-6.37854 z"
       inkscape:connector-curvature="0" />
  </g>
</svg>
